<?xml version="1.0" encoding="UTF-8"?>
<svg width="100px" height="46px" viewBox="0 0 100 46" version="1.1" xmlns="http://www.w3.org/2000/svg" xmlns:xlink="http://www.w3.org/1999/xlink">
    <!-- Generator: Sketch 40.2 (33826) - http://www.bohemiancoding.com/sketch -->
    <title>Logo</title>
    <desc>Created with Sketch.</desc>
    <defs></defs>
    <g id="Symbols" stroke="none" stroke-width="1" fill="none" fill-rule="evenodd">
        <g id="Logo">
            <g transform="translate(50.000000, 23.500000) rotate(-0.000000) translate(-50.000000, -23.500000) ">
                <polygon id="Fill-1" fill="#0C4DA2" points="10.0833749 0.000170887364 20.1670355 17.40448 10.0833749 34.8076499 16.615324 34.8076499 23.1489874 46.0816593 19.8887276 29.1655185 26.6932699 17.4084674 26.6978416 17.4084674 26.6978416 17.40448 26.6978416 17.4022015 26.6932699 17.4022015 16.6210387 0.000170887364"></polygon>
                <polygon id="Fill-2" fill="#FFCC00" points="10.0833749 0.000683549477 0.00657195226 17.4027142 -0.000285737042 17.4027142 0.00657195226 17.404423 -0.000285737042 17.4084104 0.00657195226 17.4084104 10.0833749 34.8075929 13.3556356 29.1648919 6.54194985 17.404423 16.6210387 0.000683549477"></polygon>
                <polyline id="Fill-3" fill="#000000" points="30.3864213 29.1656894 30.3864213 5.63905539 31.9625469 5.63905539 42.1976481 17.2502826 52.4350353 5.63905539 54.0145898 5.63905539 54.0145898 29.1656894 49.2856415 29.1656894 49.2719261 15.5209024 42.1976481 23.3634935 35.1125122 15.5209024 35.1125122 29.1656894"></polyline>
                <g id="Group-8" transform="translate(57.147411, 5.638486)" fill="#000000">
                    <path d="M5.27470602,9.41669161 L11.8809467,9.41669161 C13.7856699,9.38251414 14.7611762,8.5144063 14.8143233,6.82603907 C14.7611762,5.27666024 13.7999568,4.4689326 11.9300935,4.41083089 L5.27470602,4.41083089 L5.27470602,9.41669161 Z M0.552043988,23.5274315 L0.552043988,0.000797474398 L10.8431497,0.000797474398 C16.3533031,0.000797474398 19.1100942,2.25878927 19.1100942,6.77591211 C19.1100942,11.4627831 16.3601608,13.8062185 10.859151,13.8062185 L5.27470602,13.8062185 L5.27470602,23.5274315 L0.552043988,23.5274315 Z" id="Fill-4"></path>
                    <polyline id="Fill-6" points="41.9213089 0.000683549484 41.9213089 4.39191942 34.3906261 4.39191936 34.3906261 23.5267479 29.6702499 23.5267479 29.6702499 4.39191936 21.7964797 4.39191936 21.7964797 0.000683549484"></polyline>
                </g>
            </g>
        </g>
    </g>
</svg>