<?xml version="1.0" encoding="utf-8"?>
<!-- Generator: Adobe Illustrator 22.1.0, SVG Export Plug-In . SVG Version: 6.00 Build 0)  -->
<svg version="1.1" id="Layer_1" xmlns="http://www.w3.org/2000/svg" xmlns:xlink="http://www.w3.org/1999/xlink" x="0px" y="0px"
	 viewBox="0 0 184 32" style="enable-background:new 0 0 184 32;" xml:space="preserve">
<style type="text/css">
	.st0{fill:#ED1C24;}
	.st1{fill:#FFFFFF;}
	.st2{fill:#EC1C24;}
</style>
<g>
	<g>
		<path id="XMLID_15_" class="st0" d="M167.8,0c-5.1,0-9.7,2.4-12.6,6.2c-2.9-3.8-7.5-6.2-12.6-6.2c-5.1,0-9.7,2.4-12.6,6.2
			c-1.2-1.5-2.6-2.8-4.3-3.8l0,13.7c0,4.6-3.7,8.3-8.3,8.3c-4.6,0-8.3-3.7-8.3-8.3c0-4.6,3.7-8.3,8.3-8.3c1.5,0,3,0.4,4.3,1.2
			l0.3,0.2l0-8.4c-1.5-0.5-3.1-0.7-4.7-0.7c-5.1,0-9.7,2.4-12.6,6.2C101.7,2.4,97.1,0,92,0c-5.1,0-9.7,2.4-12.6,6.2
			C76.4,2.4,71.9,0,66.7,0C61.6,0,57,2.4,54.1,6.2C51.2,2.4,46.6,0,41.5,0c-5.1,0-9.7,2.4-12.6,6.2C25.9,2.4,21.3,0,16.2,0
			c-8.8,0-16,7.2-16,16c0,8.8,7.2,16,16,16c5.1,0,9.7-2.4,12.6-6.2c2.9,3.8,7.5,6.2,12.6,6.2c5.1,0,9.7-2.4,12.6-6.2
			C57,29.6,61.6,32,66.7,32c5.1,0,9.7-2.4,12.6-6.2C82.3,29.6,86.9,32,92,32c5.1,0,9.7-2.4,12.6-6.2c2.9,3.8,7.5,6.2,12.6,6.2
			c5.1,0,9.7-2.4,12.6-6.2c2.9,3.8,7.5,6.2,12.6,6.2c5.1,0,9.7-2.4,12.6-6.2c2.9,3.8,7.5,6.2,12.6,6.2c8.8,0,16-7.2,16-16
			C183.8,7.2,176.6,0,167.8,0z"/>
		<path class="st1" d="M142.5,24.3c-4.6,0-8.3-3.7-8.3-8.3c0-4.6,3.7-8.3,8.3-8.3c4.6,0,8.3,3.7,8.3,8.3
			C150.9,20.6,147.1,24.3,142.5,24.3z M142.5,11.3c-2.6,0-4.7,2.1-4.7,4.7c0,2.6,2.1,4.7,4.7,4.7c2.6,0,4.7-2.1,4.7-4.7
			C147.2,13.4,145.1,11.3,142.5,11.3z"/>
		<path class="st1" d="M167.8,24.3c-4.6,0-8.3-3.7-8.3-8.3c0-4.6,3.7-8.3,8.3-8.3c4.6,0,8.3,3.7,8.3,8.3
			C176.1,20.6,172.4,24.3,167.8,24.3z M167.8,11.3c-2.6,0-4.7,2.1-4.7,4.7c0,2.6,2.1,4.7,4.7,4.7c2.6,0,4.7-2.1,4.7-4.7
			C172.5,13.4,170.4,11.3,167.8,11.3z"/>
		<path class="st1" d="M41.5,24.3c-4.6,0-8.3-3.7-8.3-8.3c0-4.6,3.7-8.3,8.3-8.3c4.6,0,8.3,3.7,8.3,8.3
			C49.8,20.6,46.1,24.3,41.5,24.3z M41.5,11.3c-2.6,0-4.7,2.1-4.7,4.7c0,2.6,2.1,4.7,4.7,4.7c2.6,0,4.7-2.1,4.7-4.7
			C46.1,13.4,44,11.3,41.5,11.3z"/>
		<path class="st1" d="M16.2,24.3c-4.6,0-8.3-3.7-8.3-8.3c0-4.6,3.7-8.3,8.3-8.3c4.6,0,8.3,3.7,8.3,8.3
			C24.5,20.6,20.8,24.3,16.2,24.3z M16.2,11.3c-2.6,0-4.7,2.1-4.7,4.7c0,2.6,2.1,4.7,4.7,4.7c2.6,0,4.7-2.1,4.7-4.7
			C20.9,13.4,18.8,11.3,16.2,11.3z"/>
		<path class="st1" d="M92.3,24.3c-0.3,0-0.5,0-0.8,0l-0.2,0l-0.3,0c-4.2-0.5-7.4-4-7.4-8.3c0-4.6,3.7-8.3,8.3-8.3
			c4.6,0,8.3,3.7,8.3,8.3c0,0.6,0,1-0.2,1.6l-12.6,0l0.3,0.6c0.7,1.3,1.9,2.2,3.2,2.4c0.4,0.1,0.8,0.1,1.2,0.1l0.2,0
			c1.2,0,2.4-0.5,3.1-1.1l0.1-0.1l3.4,1.8L99,21.4c-1.5,1.8-3.7,2.8-6.5,2.9C92.5,24.3,92.4,24.3,92.3,24.3z M92,11.3
			c-1.9,0-3.6,1.1-4.3,2.9l0,0.1l8.7,0l0-0.1C95.6,12.4,93.9,11.3,92,11.3z"/>
		<path id="XMLID_4_" class="st1" d="M58.8,23.9l0-7.9l0-0.5c0.2-4.4,3.9-7.9,8.3-7.9c3.2,0,6,1.8,7.4,4.6L71.4,14
			c-0.8-1.6-2.4-2.7-4.2-2.7c-2.6,0-4.7,2.1-4.7,4.7l0,7.9H58.8z"/>
		<path id="XMLID_3_" class="st2" d="M117.3,11.3c-2.6,0-4.7,2.1-4.7,4.7c0,2.6,2.1,4.7,4.7,4.7c2.6,0,4.7-2.1,4.7-4.7
			C122,13.4,119.8,11.3,117.3,11.3z"/>
		<path class="st1" d="M122,0.7l0,8.4l-0.3-0.2c-1.3-0.8-2.8-1.2-4.3-1.2c-4.6,0-8.3,3.7-8.3,8.3c0,4.6,3.7,8.3,8.3,8.3
			c4.6,0,8.3-3.7,8.3-8.3l0-13.6C124.5,1.7,123.3,1.1,122,0.7z M117.3,20.7c-2.6,0-4.7-2.1-4.7-4.7c0-2.6,2.1-4.7,4.7-4.7
			c2.6,0,4.7,2.1,4.7,4.7C122,18.6,119.8,20.7,117.3,20.7z"/>
	</g>
</g>
</svg>
